<svg xmlns="http://www.w3.org/2000/svg" fill="none" viewBox="341.14500000000004 0 1827.021 578.8425655976677" style="max-height: 500px" width="1827.021" height="578.8425655976677">
<g clip-path="url(#clip0_27343_2783)">
<path fill="url(#paint0_linear_27343_2783)" d="M3359.05 -449.001C2904.14 -153.567 2359.39 272.531 1961.09 831.967C1169.58 1941.54 1417.64 2929.22 1604.64 3406.64L1721.18 3406.64C1471.91 2929.14 1141.27 1941.14 2195.61 831.345C2726.75 272.25 3453.45 -153.628 4060.1 -448.981L3359.05 -448.981L3359.05 -449.001Z"/>
<path fill="url(#paint1_linear_27343_2783)" d="M3359.04 -449.001C2904.14 -153.567 2359.39 272.531 1961.09 831.967C1169.57 1941.54 1417.64 2929.22 1604.64 3406.64L1488.11 3406.64C1363.43 2929.3 1197.93 1941.96 1726.62 832.61C1992.09 272.833 2354.87 -153.487 2657.99 -449.001L3359.04 -449.001Z"/>
<path fill="url(#paint2_linear_27343_2783)" d="M2657.98 -449.001C2354.81 -153.487 1992.08 272.833 1726.62 832.61C1197.92 1941.96 1363.42 2929.3 1488.1 3406.64L1371.57 3406.64C1309.15 2929.4 1226.22 1942.36 1492.1 833.252C1624.73 273.134 1805.55 -153.407 1956.92 -449.001L2657.98 -449.001Z"/>
<path fill="url(#paint3_linear_27343_2783)" d="M1956.93 -449.001C1956.93 -448.994 1956.93 -448.987 1956.92 -448.98L1255.93 -448.98L1255.92 3406.64L1371.58 3406.64C1309.16 2929.4 1226.23 1942.36 1492.11 833.253C1624.74 273.147 1805.5 -153.387 1956.92 -448.98L1956.99 -448.98L1956.93 -449.001Z"/>
<path fill="url(#paint4_linear_27343_2783)" d="M-846.946 -449.001C-392.039 -153.567 152.706 272.531 551.009 831.967C1342.52 1941.54 1094.46 2929.22 907.456 3406.64L790.925 3406.64C1040.19 2929.14 1370.83 1941.14 316.493 831.345C-214.647 272.25 -941.354 -153.628 -1548 -448.981L-846.946 -448.981L-846.946 -449.001Z"/>
<path fill="url(#paint5_linear_27343_2783)" d="M-846.941 -449.001C-392.035 -153.567 152.71 272.531 551.013 831.967C1342.53 1941.54 1094.46 2929.22 907.46 3406.64L1023.99 3406.64C1148.67 2929.3 1314.17 1941.96 785.476 832.61C520.01 272.833 157.228 -153.487 -145.887 -449.001L-846.941 -449.001Z"/>
<path fill="url(#paint6_linear_27343_2783)" d="M-145.879 -449.001C157.288 -153.487 520.019 272.833 785.485 832.61C1314.18 1941.96 1148.68 2929.3 1024 3406.64L1140.53 3406.64C1202.95 2929.4 1285.88 1942.36 1020 833.252C887.372 273.134 706.551 -153.407 555.175 -449.001L-145.879 -449.001Z"/>
<path fill="url(#paint7_linear_27343_2783)" d="M555.166 -449.001C555.169 -448.994 555.172 -448.987 555.176 -448.98L1256.17 -448.98L1256.18 3406.64L1140.52 3406.64C1202.94 2929.4 1285.87 1942.36 1019.99 833.253C887.365 273.147 706.602 -153.387 555.176 -448.98L555.114 -448.98L555.166 -449.001Z"/>
</g>
<defs>
<linearGradient gradientUnits="userSpaceOnUse" y2="618.619" x2="3862.16" y1="4713.43" x1="1893.38" id="paint0_linear_27343_2783">
<stop stop-color="#FFE88E" offset="0.659397"/>
<stop stop-color="#FB9CE5" offset="0.709823"/>
<stop stop-color="#096FFF" offset="0.793779"/>
<stop stop-opacity="0" stop-color="#096FFF" offset="0.887984"/>
</linearGradient>
<linearGradient gradientUnits="userSpaceOnUse" y2="1126.36" x2="4006.98" y1="4713.43" x1="1722.96" id="paint1_linear_27343_2783">
<stop stop-color="#FFE88E" offset="0.659397"/>
<stop stop-color="#FB9CE5" offset="0.709823"/>
<stop stop-color="#096FFF" offset="0.793779"/>
<stop stop-opacity="0" stop-color="#096FFF" offset="0.887984"/>
</linearGradient>
<linearGradient gradientUnits="userSpaceOnUse" y2="2043.24" x2="4068.76" y1="4713.43" x1="1552.5" id="paint2_linear_27343_2783">
<stop stop-color="#FFE88E" offset="0.659397"/>
<stop stop-color="#FB9CE5" offset="0.709823"/>
<stop stop-color="#096FFF" offset="0.793779"/>
<stop stop-opacity="0" stop-color="#096FFF" offset="0.887984"/>
</linearGradient>
<linearGradient gradientUnits="userSpaceOnUse" y2="3538.62" x2="3514.07" y1="4713.43" x1="1382.76" id="paint3_linear_27343_2783">
<stop stop-color="#FFE88E" offset="0.659397"/>
<stop stop-color="#FB9CE5" offset="0.709823"/>
<stop stop-color="#096FFF" offset="0.793779"/>
<stop stop-opacity="0" stop-color="#096FFF" offset="0.887984"/>
</linearGradient>
<linearGradient gradientUnits="userSpaceOnUse" y2="618.619" x2="-1350.06" y1="4713.43" x1="618.719" id="paint4_linear_27343_2783">
<stop stop-color="#FFE88E" offset="0.659397"/>
<stop stop-color="#FB9CE5" offset="0.709823"/>
<stop stop-color="#096FFF" offset="0.793779"/>
<stop stop-opacity="0" stop-color="#096FFF" offset="0.887984"/>
</linearGradient>
<linearGradient gradientUnits="userSpaceOnUse" y2="1126.36" x2="-1494.88" y1="4713.43" x1="789.139" id="paint5_linear_27343_2783">
<stop stop-color="#FFE88E" offset="0.659397"/>
<stop stop-color="#FB9CE5" offset="0.709823"/>
<stop stop-color="#096FFF" offset="0.793779"/>
<stop stop-opacity="0" stop-color="#096FFF" offset="0.887984"/>
</linearGradient>
<linearGradient gradientUnits="userSpaceOnUse" y2="2043.24" x2="-1556.66" y1="4713.43" x1="959.601" id="paint6_linear_27343_2783">
<stop stop-color="#FFE88E" offset="0.659397"/>
<stop stop-color="#FB9CE5" offset="0.709823"/>
<stop stop-color="#096FFF" offset="0.793779"/>
<stop stop-opacity="0" stop-color="#096FFF" offset="0.887984"/>
</linearGradient>
<linearGradient gradientUnits="userSpaceOnUse" y2="3538.62" x2="-1001.97" y1="4713.43" x1="1129.34" id="paint7_linear_27343_2783">
<stop stop-color="#FFE88E" offset="0.659397"/>
<stop stop-color="#FB9CE5" offset="0.709823"/>
<stop stop-color="#096FFF" offset="0.793779"/>
<stop stop-opacity="0" stop-color="#096FFF" offset="0.887984"/>
</linearGradient>
<clipPath id="clip0_27343_2783">
<rect fill="white" height="867" width="2527"/>
</clipPath>
</defs>
</svg>